<?xml version="1.0" encoding="UTF-8" standalone="no"?>
<svg xmlns="http://www.w3.org/2000/svg" xmlns:xlink="http://www.w3.org/1999/xlink" clip-rule="evenodd" stroke-miterlimit="10" viewBox="146.61 275.50 256.26 191.79">
    <desc>SVG generated by Lineform</desc>
    <defs/>
    <g>
        <path d="M 169.50 342.50 C 169.17 332.83 166.66 323.00 168.50 313.50 C 170.50 303.17 173.52 299.16 181.50 294.50 C 189.50 289.83 196.50 289.17 204.50 289.50 C 213.90 289.89 221.83 290.83 230.50 294.50 C 234.83 295.83 239.17 297.17 243.50 298.50 C 260.83 298.83 278.17 299.17 295.50 299.50 C 300.17 296.83 305.06 294.52 309.50 291.50 C 317.83 285.83 318.51 284.94 327.50 283.50 C 335.83 282.17 344.17 283.83 351.50 286.50 C 355.49 287.95 361.28 292.89 363.50 296.50 C 366.17 300.83 364.83 306.17 364.50 313.50 C 363.83 320.83 363.17 328.17 362.50 335.50 C 367.17 340.50 372.01 345.34 376.50 350.50 C 383.17 358.17 390.83 368.83 393.50 379.50 C 395.76 388.55 394.50 398.17 393.50 407.50 C 392.37 418.03 386.83 428.83 380.50 436.50 C 372.60 446.06 359.17 450.17 348.50 455.50 C 336.63 461.43 323.50 461.83 309.50 463.50 C 287.32 466.14 263.83 466.17 242.50 464.50 C 227.83 463.35 210.83 458.83 199.50 454.50 C 188.50 450.29 172.76 444.98 167.50 439.50 C 162.81 434.61 154.83 418.83 151.50 405.50 C 148.99 395.48 149.13 384.56 151.50 374.50 C 154.17 363.17 160.83 357.83 165.50 349.50 Z M 169.50 342.50 " fill="#E2371C"/>
        <path fill-rule="nonzero" fill="#000000" transform="matrix(1, 0, 0, 1, 42, 136)" d="M 347.65 216.87 C 352.62 224.61 358.15 234.76 359.35 246.09 C 359.99 252.08 359.48 257.97 358.76 263.67 C 357.83 271.04 356.59 279.34 353.29 286.84 C 349.68 295.05 345.16 302.27 338.49 308.07 C 331.81 313.86 324.06 317.16 317.41 320.12 C 323.63 317.75 330.92 314.99 337.67 309.89 C 344.42 304.78 349.36 297.88 353.36 289.87 C 357.02 282.56 358.75 274.25 359.74 266.86 C 360.50 261.14 361.17 255.24 360.73 248.89 C 359.88 236.89 353.72 225.32 347.65 216.87 M 129.80 199.58 C 128.75 191.09 127.22 183.48 129.39 174.30 C 130.48 169.71 131.87 166.86 134.48 164.23 C 137.08 161.59 141.69 158.67 145.91 156.99 C 152.56 154.34 159.34 154.31 166.80 154.69 C 174.25 155.06 180.94 156.05 188.28 159.01 L 188.25 159.02 L 188.34 159.03 C 192.63 160.27 197.02 161.55 201.40 162.82 L 201.50 162.83 L 201.49 162.83 C 203.53 162.84 205.57 162.84 207.61 162.85 C 217.03 162.87 234.54 163.09 253.50 163.38 L 253.44 163.39 C 256.41 161.68 259.51 160.09 262.53 158.37 C 265.55 156.65 269.28 154.02 272.20 152.08 C 275.12 150.14 277.01 149.15 279.95 148.38 C 282.89 147.61 287.09 146.93 290.33 146.84 C 303.31 146.45 313.34 151.46 318.37 156.50 C 323.66 161.79 323.05 167.44 322.63 177.50 L 322.62 177.50 L 322.63 177.51 C 321.99 184.77 321.37 192.26 320.77 199.52 L 320.70 199.32 C 328.50 207.53 335.93 214.85 341.32 222.13 C 337.86 217.21 330.47 208.94 321.28 198.77 L 321.56 199.60 C 322.30 192.75 323.11 185.12 323.92 177.63 L 323.92 177.56 L 323.92 177.56 C 324.44 168.64 325.58 161.90 320.26 156.14 C 314.94 150.37 307.92 147.49 301.40 146.05 C 294.88 144.61 288.30 144.70 282.43 145.75 C 276.55 146.80 274.14 148.27 271.50 149.99 C 268.56 151.91 264.82 154.59 261.80 156.33 C 258.78 158.07 255.51 159.74 252.39 161.55 L 253.54 161.26 C 237.57 161.05 221.30 160.93 205.45 160.91 C 204.15 160.91 202.84 160.91 201.53 160.91 L 201.97 160.98 C 197.61 159.73 193.34 158.52 188.88 157.25 L 189.01 157.30 C 180.87 154.05 173.42 153.18 165.24 152.95 C 157.07 152.72 150.03 153.23 142.95 156.83 C 138.68 159.00 134.73 161.91 132.50 164.79 C 130.28 167.67 129.11 171.00 128.25 175.89 C 126.53 185.67 128.55 191.83 129.80 199.58 M 279.06 328.48 C 262.98 329.58 245.23 330.56 226.99 330.06 C 216.58 329.78 206.39 329.47 195.10 327.99 C 183.80 326.51 171.64 323.41 162.26 320.28 C 152.76 317.10 139.11 312.45 130.31 307.55 C 125.91 305.09 123.97 303.04 121.37 299.18 C 118.77 295.31 115.93 290.07 113.46 284.58 C 108.97 274.65 106.15 265.07 105.54 255.96 C 104.92 246.86 105.76 237.09 109.41 228.93 C 105.11 237.54 104.15 247.88 104.79 257.41 C 105.44 266.94 108.66 277.23 113.29 287.31 C 118.42 298.47 121.58 304.67 130.51 309.45 C 139.44 314.24 152.05 318.60 161.64 321.80 C 171.10 324.96 182.76 327.90 193.85 329.38 C 204.94 330.85 214.94 331.09 226.02 331.25 C 244.51 331.50 262.22 330.40 279.06 328.48 M 153.97 157.24 C 164.09 155.87 176.00 156.58 187.39 161.12 L 187.50 161.17 L 187.66 161.22 C 191.79 162.39 196.36 163.70 200.74 164.95 L 201.06 165.06 L 201.45 165.07 C 218.33 165.05 235.94 165.10 253.46 165.37 L 254.00 165.38 L 254.43 165.12 C 254.53 165.06 254.64 165.00 254.74 164.94 C 258.01 163.07 261.47 161.34 264.85 159.35 C 268.24 157.36 272.65 154.11 275.31 152.55 C 280.63 149.43 288.56 148.43 295.97 149.31 C 303.39 150.19 310.10 152.03 315.88 157.52 C 321.66 163.01 320.45 166.93 319.85 177.38 L 319.86 177.26 C 319.49 180.72 319.14 183.94 318.79 187.30 C 318.36 191.28 317.93 195.26 317.49 199.23 L 317.38 200.56 L 318.29 201.56 C 327.86 212.19 337.63 222.08 343.72 234.46 C 346.76 240.65 348.24 246.62 348.25 253.19 C 348.27 259.76 347.43 267.39 346.12 273.60 C 343.57 285.61 336.55 296.98 325.87 303.22 C 320.53 306.34 314.02 308.78 307.54 311.55 C 301.07 314.32 296.08 316.32 289.94 317.39 C 274.15 320.15 254.38 321.27 236.84 321.55 C 220.27 321.80 204.26 321.78 188.13 318.96 C 179.04 317.38 169.89 314.98 162.78 312.65 C 155.67 310.33 144.54 306.51 137.21 303.16 C 132.49 301.01 130.85 300.17 128.86 297.74 C 126.86 295.32 124.04 290.72 121.48 285.56 C 116.36 275.25 112.97 264.70 112.55 255.00 C 112.85 264.88 116.27 275.76 121.40 286.21 C 123.96 291.44 126.78 296.05 128.70 298.38 C 130.62 300.70 132.77 301.88 137.73 304.14 C 145.42 307.63 156.01 311.34 163.20 313.72 C 170.40 316.11 179.52 318.53 188.68 320.14 C 204.95 323.00 219.77 323.04 236.37 322.88 C 253.94 322.71 272.15 321.66 288.44 319.20 C 294.79 318.24 299.94 316.64 306.29 313.84 C 312.64 311.04 319.25 308.67 324.95 305.61 C 336.34 299.50 343.89 288.59 347.24 276.04 C 350.74 262.87 351.86 248.00 345.70 234.85 C 339.54 221.71 329.23 211.38 319.40 200.53 L 318.95 200.00 L 319.00 199.36 C 319.38 195.78 319.76 192.20 320.13 188.63 C 320.52 184.89 320.90 181.20 321.29 177.39 L 321.29 177.44 C 321.84 167.22 322.84 162.19 316.72 156.47 C 310.59 150.74 303.48 148.87 295.77 148.06 C 288.05 147.25 280.02 148.37 274.38 151.83 C 271.56 153.57 267.22 156.77 263.90 158.72 C 260.58 160.68 257.21 162.40 253.95 164.30 L 253.75 164.43 L 253.48 164.42 C 253.42 164.42 253.36 164.42 253.30 164.42 C 235.55 164.27 218.27 164.37 201.46 164.54 L 201.19 164.56 L 200.90 164.45 C 196.50 163.23 191.95 161.98 187.78 160.84 L 187.62 160.78 L 187.55 160.76 C 175.97 156.27 164.00 155.74 153.97 157.24 M 126.78 173.74 C 129.34 161.86 130.30 164.61 130.04 164.99 C 129.78 165.36 126.94 164.96 137.55 157.93 C 145.68 152.55 154.05 151.00 163.18 151.11 C 172.31 151.23 180.50 151.89 189.75 155.54 L 189.44 155.43 C 192.08 156.17 194.47 156.84 197.02 157.55 C 198.89 158.08 200.73 158.60 202.54 159.11 L 201.57 158.95 C 214.23 158.90 225.95 158.91 239.38 159.11 C 244.16 159.18 248.89 159.27 253.58 159.36 L 251.45 159.90 C 256.53 157.00 260.34 155.41 266.75 151.06 C 273.17 146.71 275.92 145.09 283.15 143.89 C 297.61 141.49 309.41 143.38 319.85 153.30 C 323.33 156.61 325.84 160.48 326.26 164.68 C 326.68 168.88 325.85 172.72 325.54 177.64 L 325.54 177.69 L 325.53 177.78 C 324.70 185.13 323.86 192.41 323.00 199.73 L 322.33 197.79 C 327.51 203.63 333.08 209.48 337.81 215.56 C 343.94 223.43 350.12 233.35 352.23 243.11 C 354.34 252.87 352.84 263.37 350.92 273.32 C 349.09 282.76 343.83 292.08 337.97 298.81 C 332.11 305.54 322.91 309.62 313.78 313.34 C 304.44 317.15 295.81 320.70 285.77 321.90 C 275.73 323.10 264.67 323.97 254.58 324.56 C 231.89 325.91 207.98 326.15 185.27 321.71 C 171.19 318.96 159.70 315.01 145.21 309.56 C 137.97 306.83 131.23 303.73 128.51 301.47 C 125.78 299.22 122.98 294.69 119.77 288.52 C 115.47 280.21 111.72 270.61 110.32 262.49 C 108.91 254.37 108.69 247.10 110.76 237.78 C 112.84 228.46 117.78 223.02 121.72 216.29 C 125.66 209.55 129.12 202.02 132.76 194.95 C 128.79 202.25 125.07 210.04 120.82 216.75 C 118.70 220.11 116.32 223.21 114.24 226.75 C 112.15 230.29 110.23 235.12 109.42 239.26 C 107.79 247.53 107.64 256.36 109.25 264.79 C 110.86 273.22 115.07 283.68 119.45 291.87 C 122.70 297.96 124.55 301.32 128.46 304.10 C 132.36 306.89 139.20 309.80 146.20 312.46 C 160.18 317.78 170.84 321.66 185.15 324.56 C 208.24 329.24 228.00 329.09 250.82 328.19 C 271.12 327.39 290.91 327.39 308.32 319.81 C 316.81 316.11 326.66 313.11 334.71 307.27 C 342.76 301.42 348.35 293.02 352.24 283.23 C 356.33 272.91 357.61 262.20 357.28 250.85 C 356.94 239.50 351.55 227.95 345.24 218.80 C 339.22 210.08 332.04 202.68 325.25 195.06 L 326.97 200.09 C 327.79 192.94 328.69 184.74 329.43 178.13 L 329.44 177.94 L 329.45 177.82 C 329.69 173.83 330.37 170.17 330.22 165.93 C 330.06 161.68 328.00 156.64 325.19 153.37 C 320.26 147.63 312.92 143.55 306.44 141.72 C 299.97 139.89 292.68 138.87 285.07 139.92 C 269.85 142.02 260.17 150.91 249.75 156.94 L 253.65 155.95 C 248.21 155.87 242.84 155.81 237.57 155.77 C 226.47 155.69 213.61 155.61 201.63 155.55 L 203.54 155.86 C 199.13 154.57 194.83 153.32 190.81 152.15 C 190.70 152.12 190.60 152.09 190.48 152.06 L 191.12 152.29 C 180.03 147.77 169.40 146.99 158.65 147.40 C 147.90 147.81 135.21 152.77 128.59 160.86 C 124.80 165.49 122.87 172.58 122.31 178.51 C 121.74 184.45 122.56 190.04 123.43 195.35 C 125.17 205.98 126.93 216.04 122.26 225.38 C 126.07 219.88 127.31 210.33 126.32 200.96 C 125.34 191.59 124.18 182.12 126.61 174.05 "/>
    </g>
    <path d="M 207.19 318.05 C 214.70 326.34 218.25 341.77 215.11 352.51 C 211.97 363.25 203.33 365.24 195.81 356.95 C 188.30 348.66 184.75 333.23 187.89 322.49 C 191.03 311.75 199.67 309.76 207.19 318.05 " fill="#FFFFFF" stroke="#000000" stroke-width="0.25"/>
    <path d="M 340.47 316.40 C 340.15 328.20 332.51 343.84 323.41 351.35 C 314.31 358.86 307.20 355.39 307.53 343.60 C 307.85 331.80 315.49 316.16 324.59 308.65 C 333.69 301.14 340.80 304.61 340.47 316.40 " fill="#FFFFFF" stroke="#000000" stroke-width="0.25"/>
    <path d="M 333.69 304.69 C 331.12 304.56 328.01 305.84 324.59 308.66 C 322.93 310.03 321.34 311.72 319.81 313.56 C 319.32 317.77 320.22 322.17 322.88 325.41 C 327.33 330.83 334.50 330.86 339.00 325.53 C 339.86 322.38 340.39 319.28 340.47 316.41 C 340.67 309.04 337.96 304.91 333.69 304.69 Z M 333.69 304.69 " fill="#6F6F6F" stroke="#000000" stroke-width="1.00"/>
    <path d="M 198.00 313.50 C 195.06 313.50 192.12 314.86 189.88 317.59 C 185.38 323.06 185.38 331.94 189.88 337.41 C 194.37 342.87 201.63 342.87 206.12 337.41 C 210.29 332.33 210.41 324.43 206.84 318.94 C 206.61 318.66 206.43 318.33 206.19 318.06 C 204.45 316.15 202.65 314.84 200.88 314.00 C 199.93 313.70 198.97 313.50 198.00 313.50 Z M 198.00 313.50 " fill="#6F6F6F" stroke="#000000" stroke-width="1.00"/>
    <path d="M 199.50 397.50 L 198.50 415.50 L 188.50 428.50 L 188.50 428.50 " stroke="#000000" stroke-width="2.50" stroke-linecap="round" stroke-linejoin="round" fill="none"/>
    <path d="M 337.50 397.50 L 328.50 420.50 L 337.50 438.50 " stroke="#000000" stroke-width="2.50" stroke-linecap="round" stroke-linejoin="round" fill="none"/>
    <path fill-rule="nonzero" fill="#000000" transform="matrix(1, 0, 0, 1, 42, 136)" d="M 154.15 278.06 C 153.50 277.45 156.83 278.75 156.88 278.77 C 161.89 281.42 167.20 284.81 172.48 287.21 C 177.75 289.61 183.48 290.60 187.56 291.90 C 193.40 293.77 198.88 296.37 205.96 297.64 C 213.04 298.91 220.41 298.78 227.06 298.31 C 230.68 298.04 233.73 298.55 238.92 298.34 C 250.15 297.87 263.73 297.74 272.07 291.94 C 278.50 287.47 285.88 283.90 287.52 283.54 C 289.79 283.04 277.49 291.44 272.07 295.13 C 266.12 299.18 263.20 298.67 257.19 299.08 C 247.29 299.76 233.14 300.30 222.49 300.18 C 213.72 300.09 204.54 299.53 198.40 296.98 C 191.71 294.20 181.28 292.46 173.59 288.58 C 168.27 285.90 159.02 280.85 154.15 278.05 "/>
</svg>